<svg xmlns="http://www.w3.org/2000/svg" viewBox="0 0 120 120">
  <defs>
    <linearGradient id="g" x1="0" y1="0" x2="120" y2="120" gradientUnits="userSpaceOnUse">
      <stop offset="0%" stop-color="#d4a853"/>
      <stop offset="100%" stop-color="#c49340"/>
    </linearGradient>
    <linearGradient id="a" x1="60" y1="0" x2="60" y2="120" gradientUnits="userSpaceOnUse">
      <stop offset="0%" stop-color="#ff3b3f"/>
      <stop offset="100%" stop-color="#ff6b4a"/>
    </linearGradient>
  </defs>
  <rect width="120" height="120" rx="24" fill="#08080c"/>
  <rect x="4" y="4" width="112" height="112" rx="22" stroke="url(#g)" stroke-width="3" fill="none"/>
  <path d="M36 30 L36 90 M36 30 C36 30 38 28 42 28 C46 28 48 30 48 30 L48 54 M48 54 L72 54 M72 54 L72 30 C72 30 74 28 78 28 C82 28 84 30 84 30 L84 90" stroke="url(#g)" stroke-width="5" stroke-linecap="round" fill="none"/>
  <path d="M30 90 L54 90" stroke="url(#g)" stroke-width="4" stroke-linecap="round"/>
  <path d="M66 90 L90 90" stroke="url(#g)" stroke-width="4" stroke-linecap="round"/>
  <path d="M30 30 L48 30" stroke="url(#g)" stroke-width="3" stroke-linecap="round"/>
  <path d="M72 30 L90 30" stroke="url(#g)" stroke-width="3" stroke-linecap="round"/>
  <circle cx="60" cy="104" r="4" fill="url(#a)"/>
</svg>
